:SAMPLES-PER-SECOND 24
:FULLY-SPECIFIED
:DEGREES
295
root  -15.8101 40.6505 6.24575 151.232 66.268 156.326
RightUpLeg  -11.2094 -23.6111 -3.29937
RightLeg  33.4047 25.18 16.6428
RightFoot  1.59696 -2.47703 21.7008
RightToes  -1.46203e-006 3.27826e-006 1.63871e-007
Spine  1.87223 2.42226 0.401317
Spine1  15.4117 5.05268 -8.70703
HEad  -23.5253 48.9323 -31.0347
LeftShoulder1  2.30432 -3.62441 -26.1968
LeftArm  6.20362 24.1778 -32.6165
LeftForeArm  90.7327 -79.6316 -95.6685
LeftHand  -0.401961 2.97098 19.0399
RightShoulder  3.90872 6.30015 33.9837
RightArm  13.6015 -31.2466 23.1885
RightForeArm  155.579 69.1859 152.587
RightHand  -0.256215 -1.569 -7.62353
LeftUpLeg  3.51522 21.5137 0.906712
LeftLeg  29.3676 -2.35581 -1.07339
LeftFoot  6.47935 1.54181 -10.0672
LeftToes  1.24767e-006 1.47042e-008 1.32732e-009
296
root  -16.6428 40.0337 7.37703 159.493 65.5637 163.393
RightUpLeg  -18.0339 -21.1942 -4.18921
RightLeg  43.8784 20.6971 19.6277
RightFoot  -4.67151 -1.205 19.5011
RightToes  -1.46203e-006 3.27826e-006 1.63871e-007
Spine  3.83873 2.20496 -1.27633
Spine1  13.314 3.63453 -6.4097
HEad  -25.8949 47.9238 -31.8945
LeftShoulder1  2.25145 -3.50288 -25.995
LeftArm  6.78702 19.6782 -32.5815
LeftForeArm  85.3925 -79.7552 -88.8541
LeftHand  -0.389093 3.07094 19.208
RightShoulder  3.86803 6.32281 33.48
RightArm  11.2489 -30.9697 24.1398
RightForeArm  153.22 69.9163 151.252
RightHand  -0.232831 -2.12384 -7.99649
LeftUpLeg  5.11661 23.642 2.0441
LeftLeg  25.8225 3.23896 1.84224
LeftFoot  -4.40443 0.639282 -10.1172
LeftToes  1.24767e-006 1.47042e-008 1.32732e-009
297
root  -17.5678 39.188 8.83146 167.673 60.4927 170.128
RightUpLeg  -22.8722 -22.2832 -7.57457
RightLeg  50.984 8.90767 11.1547
RightFoot  -6.80813 -0.38308 8.95162
RightToes  -1.46203e-006 3.27826e-006 1.63871e-007
Spine  5.64889 1.29101 -4.08171
Spine1  13.0769 1.52407 -3.20868
HEad  -29.7577 44.1247 -32.6924
LeftShoulder1  2.36072 -3.62999 -26.9863
LeftArm  7.53353 8.72449 -30.7573
LeftForeArm  70.1457 -79.3332 -73.8871
LeftHand  -0.367371 3.22563 19.394
RightShoulder  3.90166 6.31511 33.8528
RightArm  6.1183 -28.5143 27.0627
RightForeArm  151.326 71.8269 147.979
RightHand  -0.210518 -2.36609 -7.73583
LeftUpLeg  0.988585 20.0385 2.73006
LeftLeg  23.6582 5.81714 2.43793
LeftFoot  -11.8971 0.028393 -9.6508
LeftToes  1.24767e-006 1.47042e-008 1.32732e-009
298
root  -18.3326 38.5796 10.4881 172.692 54.2946 173.335
RightUpLeg  -23.8365 -23.8145 -12.9142
RightLeg  54.7375 1.87187 2.44798
RightFoot  -5.97299 -0.206644 3.53502
RightToes  -1.46203e-006 3.27826e-006 1.63871e-007
Spine  5.50027 0.967073 -6.42238
Spine1  16.1719 0.423196 -1.03496
HEad  -32.8769 38.2953 -32.4299
LeftShoulder1  2.49084 -3.87202 -27.6908
LeftArm  7.74361 -5.75791 -31.6519
LeftForeArm  40.1885 -75.0342 -42.9267
LeftHand  -0.306532 3.71604 20.8515
RightShoulder  4.09242 6.3689 35.5452
RightArm  -0.228653 -21.7343 31.0384
RightForeArm  140.122 77.291 130.904
RightHand  -0.154529 -3.30239 -7.92547
LeftUpLeg  -6.9092 17.5461 3.30519
LeftLeg  27.1549 1.33619 1.02061
LeftFoot  -14.1193 -0.113058 -8.13492
LeftToes  1.24767e-006 1.47042e-008 1.32732e-009
299
root  -18.7662 38.5057 12.1182 175.877 51.3947 175.67
RightUpLeg  -20.514 -20.4498 -17.2151
RightLeg  53.2505 -0.529452 -1.1416
RightFoot  -4.16278 -0.0816091 0.84955
RightToes  -1.46203e-006 3.27826e-006 1.63871e-007
Spine  5.94332 1.73799 -5.31956
Spine1  17.5422 1.40001 -1.58195
HEad  -32.0531 34.1388 -30.4774
LeftShoulder1  2.52555 -3.97822 -27.6759
LeftArm  7.06338 -12.9091 -35.9409
LeftForeArm  34.7146 -69.4799 -27.4434
LeftHand  -0.105892 4.86262 22.1179
RightShoulder  4.22244 6.45359 36.4798
RightArm  -1.91534 -13.5636 34.1184
RightForeArm  105.548 80.7155 87.7846
RightHand  -0.0545437 -4.83014 -7.1148
LeftUpLeg  -11.9881 17.6123 5.23357
LeftLeg  28.6263 -1.28748 -0.388109
LeftFoot  -11.8603 0.0356711 -7.78347
LeftToes  1.24767e-006 1.47042e-008 1.32732e-009
300
root  -18.9026 38.7639 13.6637 177.808 50.8417 178.149
RightUpLeg  -14.2547 -14.009 -19.447
RightLeg  47.208 -1.00282 -1.49514
RightFoot  0.108425 0.0110701 -0.149734
RightToes  -1.46203e-006 3.27826e-006 1.63871e-007
Spine  7.95085 2.65548 -2.10347
Spine1  16.3489 3.04634 -3.64484
HEad  -29.1947 32.2156 -28.1196
LeftShoulder1  2.5056 -3.97126 -27.4334
LeftArm  5.38129 -10.5544 -39.8409
LeftForeArm  42.6085 -69.5979 -26.3148
LeftHand  -0.0322348 5.24787 22.062
RightShoulder  4.00088 6.3519 34.6983
RightArm  1.81371 -9.02389 36.4955
RightForeArm  100.876 80.7042 80.2319
RightHand  -0.0292991 -5.25519 -5.61865
LeftUpLeg  -12.4825 16.6383 8.14763
LeftLeg  25.0119 -0.589757 -0.0619556
LeftFoot  -7.59748 0.357928 -9.49781
LeftToes  1.24767e-006 1.47042e-008 1.32732e-009
